<svg width="20" height="20" viewBox="0 0 20 20" fill="none" xmlns="http://www.w3.org/2000/svg">
<path d="M14.3868 1.29167L12.3497 3.3287H2.41204V17.588H16.6713V7.65028L18.7083 5.61324V18.6065C18.7083 18.8766 18.601 19.1357 18.41 19.3267C18.219 19.5177 17.9599 19.625 17.6898 19.625H1.39352C1.12339 19.625 0.864326 19.5177 0.673317 19.3267C0.482308 19.1357 0.375 18.8766 0.375 18.6065V2.31019C0.375 2.04006 0.482308 1.78099 0.673317 1.58998C0.864326 1.39897 1.12339 1.29167 1.39352 1.29167H14.3868ZM18.1838 0.375L19.625 1.81722L10.2628 11.1794L8.82463 11.1825L8.82259 9.73926L18.1838 0.375Z" fill="white"/>
</svg>
